<?xml version="1.0" encoding="UTF-8"?>
<svg id="_圖層_1" data-name="圖層 1" xmlns="http://www.w3.org/2000/svg" viewBox="0 0 777.02 474.3">
  <defs>
    <style>
      .cls-1 {
        fill: transparent;
        stroke: #231815;
        stroke-miterlimit: 10;
      }
    </style>
  </defs>
  <path class="cls-1" d="M4.75,44S20.31-88.59,190.68,109.19s140.74,394.81-10.37,360.74S-27.84,369.93,13.64,336.6s140.26,19.45,139.87-124.44S293.64,28.45,352.16,78.82s397.78,368.89,204.44,374.81,92.59-205.93-16.3-336.3S-60.43,158.08,53.64,292.89s325.93-2.22,308.89-145.19C345.49,4.74,92.16,.3,209.2,189.93s75.56,265.93,227.41,129.63,408.91,131.4,267.41,132.59-67.41-239.26-60.74-302.96-224.44-71.85-245.93,114.81,19.26,259.26,134.81,131.85c115.56-127.41,174.81-142.96,189.63-91.11s-284.44-57.78-314.81-147.41,199.26-191.85,254.07-111.85-13.33,155.56,34.07,199.26,81.48-7.6,81.48-7.6"/>
</svg>