<?xml version="1.0" encoding="UTF-8"?>
<svg id="_圖層_1" data-name="圖層 1" xmlns="http://www.w3.org/2000/svg" viewBox="0 0 315.92 516.21">
  <defs>
    <style>
      .cls-1, .cls-2, .cls-3, .cls-4 {
        fill: none;
      }

      .cls-1, .cls-2, .cls-4 {
        stroke: #000;
        stroke-miterlimit: 10;
      }

      .cls-2 {
        stroke-width: 10px;
      }

      .cls-3 {
        stroke: #231815;
      }

      .cls-5 {
        fill: #231815;
      }

      .cls-4 {
        stroke-width: 9px;
      }
    </style>
  </defs>
  <g>
    <path class="cls-3" d="M306.12,255.64c-17.73,56.99-70.88,98.37-133.71,98.37-77.32,0-140-62.68-140-140,0-26.63,7.44-51.52,20.34-72.72"/>
    <g>
      <path class="cls-3" d="M306.12,255.64c26.95-59.42-4.24-162.4-99.04-174.15"/>
      <path class="cls-3" d="M299.22,252.62c21.61-47.27,7.56-121.07-44.93-154.65-13.09-8.38-29-14.31-47.07-16.47"/>
      <path class="cls-3" d="M292.32,249.6c21.69-47.08,9.14-119.4-40.36-152.22-12.22-8.1-27.54-13.91-44.6-15.86"/>
      <path class="cls-3" d="M285.42,246.58c21.77-46.89,10.72-117.73-35.79-149.8-11.35-7.83-26.07-13.5-42.12-15.26"/>
      <path class="cls-3" d="M278.52,243.56c21.86-46.69,12.28-116.05-31.22-147.37-10.49-7.55-24.61-13.1-39.65-14.66"/>
      <path class="cls-3" d="M271.62,240.54c21.94-46.5,13.82-114.36-26.65-144.94-9.63-7.28-23.14-12.7-37.18-14.06"/>
      <path class="cls-3" d="M264.72,237.53c22.02-46.31,15.34-112.66-22.07-142.52-8.77-7-21.68-12.3-34.71-13.45"/>
      <path class="cls-3" d="M257.82,234.51c22.1-46.12,16.82-110.95-17.5-140.09-7.92-6.73-20.21-11.9-32.24-12.85"/>
      <path class="cls-3" d="M250.93,231.49c22.19-45.92,18.27-109.23-12.93-137.66-7.08-6.45-18.74-11.5-29.77-12.25"/>
      <path class="cls-3" d="M244.03,228.47c22.27-45.73,19.67-107.51-8.36-135.23-6.25-6.18-17.28-11.1-27.3-11.64"/>
      <path class="cls-3" d="M237.13,225.45c22.35-45.54,21.01-105.79-3.79-132.81-5.43-5.92-15.81-10.7-24.83-11.04"/>
      <path class="cls-3" d="M230.23,222.43c22.43-45.35,22.28-104.08,.79-130.38-4.63-5.66-14.35-10.3-22.36-10.44"/>
      <path class="cls-3" d="M223.33,219.41c22.51-45.15,23.47-102.4,5.36-127.95-3.84-5.42-12.88-9.9-19.89-9.83"/>
      <path class="cls-3" d="M216.43,216.39c22.6-44.96,24.56-100.78,9.93-125.53-3.08-5.21-11.42-9.49-17.41-9.23"/>
      <path class="cls-3" d="M209.53,213.37c22.68-44.77,29.8-101.75,14.5-123.1-1.37-5.38-9.95-9.09-14.94-8.63"/>
      <path class="cls-3" d="M202.63,210.35c22.76-44.58,31.5-100.25,19.07-120.67-.47-5.14-8.49-8.69-12.47-8.02"/>
      <path class="cls-3" d="M195.73,207.34c22.84-44.38,33.2-98.75,23.65-118.25,.43-4.91-7.02-8.29-10-7.42"/>
      <path class="cls-3" d="M188.83,204.32c22.93-44.19,34.91-97.25,28.22-115.82,1.33-4.68-5.56-7.89-7.53-6.82"/>
      <path class="cls-3" d="M181.93,201.3c23.01-44,36.61-95.75,32.79-113.39,2.23-4.44-4.09-7.49-5.06-6.21"/>
      <path class="cls-3" d="M175.04,198.28c23.09-43.81,38.31-94.25,37.36-110.97,3.13-4.21-2.63-7.09-2.59-5.61"/>
      <path class="cls-3" d="M168.14,195.26c23.17-43.61,40.02-92.76,41.93-108.54,4.03-3.97-1.16-6.69-.12-5.01"/>
      <path class="cls-3" d="M161.24,192.24c23.25-43.42,41.72-91.26,46.5-106.11,4.93-3.74,.3-6.29,2.35-4.4"/>
      <path class="cls-3" d="M154.34,189.22c23.34-43.23,43.42-89.76,51.08-103.68,5.83-3.51,1.77-5.89,4.82-3.8"/>
      <path class="cls-3" d="M147.44,186.2c23.42-43.04,45.12-88.26,55.65-101.26,6.73-3.27,3.23-5.48,7.3-3.2"/>
      <path class="cls-3" d="M140.54,183.18c23.5-42.84,46.83-86.76,60.22-98.83,7.63-3.04,4.7-5.08,9.77-2.6"/>
      <path class="cls-3" d="M133.64,180.17c23.58-42.65,47.12-87.67,64.79-96.4,8.05-3.98,6.16-4.68,12.24-1.99"/>
      <path class="cls-3" d="M126.74,177.15c23.67-42.46,49.21-85.97,69.36-93.98,9.08-3.61,7.63-4.28,14.71-1.39"/>
      <path class="cls-3" d="M119.84,174.13c23.75-42.27,51.2-84.24,73.94-91.55,10.08-3.24,9.09-3.88,17.18-.79"/>
      <path class="cls-3" d="M112.94,171.11c23.83-42.07,53.12-82.51,78.51-89.12,11.06-2.88,10.56-3.48,19.65-.18"/>
      <path class="cls-3" d="M106.04,168.09c23.91-41.88,54.98-80.79,83.08-86.7,12.01-2.53,12.02-3.08,22.12,.42"/>
      <path class="cls-3" d="M99.15,165.07c23.99-41.69,56.8-79.07,87.65-84.27,12.95-2.18,13.49-2.68,24.59,1.02"/>
      <path class="cls-3" d="M92.25,162.05c24.08-41.5,58.59-77.35,92.22-81.84,13.88-1.85,14.95-2.28,27.06,1.63"/>
      <path class="cls-3" d="M85.35,159.03c24.16-41.3,60.35-75.65,96.8-79.42,14.8-1.53,16.42-1.88,29.53,2.23"/>
      <path class="cls-3" d="M78.45,156.01c24.24-41.11,62.1-73.96,101.37-76.99,15.71-1.21,17.88-1.47,32.01,2.83"/>
      <path class="cls-3" d="M71.55,152.99c24.32-40.92,63.83-72.28,105.94-74.56,16.62-.9,19.35-1.07,34.48,3.44"/>
      <path class="cls-3" d="M64.65,149.98c24.41-40.73,65.55-70.61,110.51-72.13,17.53-.6,20.81-.67,36.95,4.04"/>
      <path class="cls-3" d="M57.75,146.96c24.49-40.53,67.26-68.94,115.08-69.71,18.43-.3,22.28-.27,39.42,4.64"/>
      <path class="cls-3" d="M50.85,143.94c24.57-40.34,68.97-67.28,119.66-67.28,19.33,0,23.74,.13,41.89,5.25"/>
    </g>
    <line class="cls-3" x1="117.4" y1="231.94" x2="113.74" y2="250.15"/>
    <line class="cls-3" x1="153.82" y1="239.26" x2="150.15" y2="257.47"/>
    <path class="cls-3" d="M173.19,276.94c-2.8,13.94-23.26,21.58-45.69,17.07-22.43-4.51-38.34-19.47-35.54-33.41"/>
    <g>
      <path class="cls-3" d="M240.49,112.76c14.62,4.32,89.08-78.55,10.49-105.22"/>
      <path class="cls-3" d="M236.12,109.86c10.34,3.05,52.27-45.96,39.96-80.02-3.5-9.76-11.46-17.71-26.42-22.65"/>
      <path class="cls-3" d="M231.75,106.97c9.31,2.75,45.52-45.88,37.36-79.36-2.34-9.6-8.33-16.81-20.79-20.75"/>
      <path class="cls-3" d="M227.37,104.07c8.27,2.44,38.82-45.82,34.77-78.71-1.17-9.45-5.21-15.91-15.15-18.86"/>
      <path class="cls-3" d="M223,101.17c7.24,2.14,32.14-45.78,32.17-78.05,.01-9.3-2.08-15.01-9.51-16.97"/>
      <path class="cls-3" d="M218.63,98.28c6.2,1.83,25.46-45.74,29.58-77.4,1.19-9.15,1.05-14.11-3.87-15.07"/>
      <path class="cls-3" d="M214.26,95.38c5.17,1.53,18.8-45.69,26.99-76.74,2.38-9.01,4.18-13.21,1.76-13.18"/>
      <path class="cls-3" d="M209.89,92.49c4.14,1.22,12.15-45.65,24.39-76.09,3.56-8.86,7.31-12.3,7.4-11.28"/>
      <path class="cls-3" d="M205.52,89.59c3.1,.92,5.51-45.59,21.8-75.43,4.75-8.71,10.44-11.4,13.04-9.39"/>
      <path class="cls-3" d="M201.14,86.69c2.07,.61-1.13-45.52,19.2-74.77,5.95-8.55,13.56-10.5,18.68-7.5"/>
      <path class="cls-3" d="M196.77,83.8c1.03,.31-7.73-45.42,16.61-74.12,7.15-8.39,16.69-9.6,24.31-5.6"/>
      <path class="cls-3" d="M192.4,80.9s-14.4-45.36,14.01-73.46c8.33-8.24,19.82-8.7,29.95-3.71"/>
    </g>
    <path class="cls-3" d="M66.25,155.76s-39.08-5.43-56.44,45.69"/>
    <path class="cls-3" d="M52.63,149.94S25.81,134.18,.43,178.58"/>
    <path class="cls-3" d="M270.07,237.22s-12.67,37.37,34.29,64.01"/>
    <polygon class="cls-5" points="268.52 107.04 179.55 77.27 185.36 43.11 284.16 75.07 268.52 107.04"/>
  </g>
  <path d="M158.53,353.28c22.89,23.79,34.28,56.76,35.18,88.99,0,0,.06,3.42,.06,3.42,.08,1.14-.06,2.28-.73,3.42-4.98,7.37-20.69,10.95-34.51,13.69,0,0-.57,.49-.57,.49l-63.53-9.17,.51-.26-31.43,58.57-.88-.47c.23-.36,31.4-58.56,31.59-58.88,.18,.07,63.63,9.16,63.88,9.22,0,0-.57,.49-.57,.49,1.13-25.27,.07-56.71,.26-82.14,0,0-.26-27.38-.26-27.38h1Z"/>
  <polyline class="cls-1" points="162.17 357.2 135.76 415.77 95.78 396.95 82.92 404.79"/>
  <polyline class="cls-4" points="13.02 344.7 41.25 409.7 103.05 409.7"/>
  <polyline class="cls-4" points="216.65 388.27 198.79 466.49 122.55 466.49"/>
  <line class="cls-1" x1="198.1" y1="470.77" x2="216.05" y2="516.02"/>
  <line class="cls-1" x1="110.18" y1="516.02" x2="128.12" y2="470.77"/>
  <polyline class="cls-2" points="151.98 422.54 16.65 422.54 16.65 515.39"/>
</svg>